<svg xmlns="http://www.w3.org/2000/svg" viewBox="0 0 960 480" role="img" aria-label="Pass rate vs. p95 end-to-end latency" font-family="system-ui, -apple-system, Segoe UI, sans-serif" font-size="13"><rect width="960" height="480" fill="#fff"/><text x="80" y="24" font-size="16" font-weight="600" fill="#111">Pass rate vs. p95 end-to-end latency</text><line x1="80" x2="936" y1="416" y2="416" stroke="#e5e7eb" stroke-width="1"/><text x="72" y="420" text-anchor="end" fill="#374151">0%</text><line x1="80" x2="936" y1="340.8" y2="340.8" stroke="#e5e7eb" stroke-width="1"/><text x="72" y="344.8" text-anchor="end" fill="#374151">20%</text><line x1="80" x2="936" y1="265.6" y2="265.6" stroke="#e5e7eb" stroke-width="1"/><text x="72" y="269.6" text-anchor="end" fill="#374151">40%</text><line x1="80" x2="936" y1="190.4" y2="190.4" stroke="#e5e7eb" stroke-width="1"/><text x="72" y="194.4" text-anchor="end" fill="#374151">60%</text><line x1="80" x2="936" y1="115.19999999999999" y2="115.19999999999999" stroke="#e5e7eb" stroke-width="1"/><text x="72" y="119.19999999999999" text-anchor="end" fill="#374151">80%</text><line x1="80" x2="936" y1="40" y2="40" stroke="#e5e7eb" stroke-width="1"/><text x="72" y="44" text-anchor="end" fill="#374151">100%</text><text x="12674.505814945584" y="434" text-anchor="middle" fill="#374151">24</text><text x="23151.918160431374" y="434" text-anchor="middle" fill="#374151">26</text><text x="33629.33050591716" y="434" text-anchor="middle" fill="#374151">28</text><text x="44106.742851402945" y="434" text-anchor="middle" fill="#374151">30</text><text x="54584.15519688874" y="434" text-anchor="middle" fill="#374151">32</text><text x="65061.56754237453" y="434" text-anchor="middle" fill="#374151">34</text><line x1="80" x2="936" y1="416" y2="416" stroke="#9ca3af" stroke-width="1"/><line x1="80" x2="80" y1="40" y2="416" stroke="#9ca3af" stroke-width="1"/><text x="508" y="468" text-anchor="middle" fill="#111" font-size="13">p95 total latency (s)</text><text x="20" y="228" text-anchor="middle" transform="rotate(-90, 20, 228)" fill="#111" font-size="13">overall pass rate</text><line x1="-816.9049392685166" x2="-816.9049392685166" y1="40" y2="416" stroke="#D55E00" stroke-width="1.5" stroke-dasharray="6,4"/><line x1="80" x2="936" y1="190.4" y2="190.4" stroke="#D55E00" stroke-width="1.5" stroke-dasharray="6,4"/><line x1="80" x2="146.38593346382967" y1="416" y2="416" stroke="#0072B2" stroke-width="1" opacity="0.55"/><line x1="129.8111637699601" x2="129.8111637699601" y1="416" y2="416" stroke="#0072B2" stroke-width="1" opacity="0.55"/><circle cx="129.8111637699601" cy="416" r="6" fill="#0072B2" fill-opacity="0.9" stroke="#fff" stroke-width="1.5"/><text x="138.8111637699601" y="407" font-size="11" fill="#111">qwen3.5:4b</text><line x1="679.2394465042934" x2="818.0621900538192" y1="416" y2="416" stroke="#0072B2" stroke-width="1" opacity="0.55"/><line x1="779.9908849927921" x2="779.9908849927921" y1="416" y2="416" stroke="#0072B2" stroke-width="1" opacity="0.55"/><circle cx="779.9908849927921" cy="416" r="6" fill="#0072B2" fill-opacity="0.9" stroke="#fff" stroke-width="1.5"/><text x="788.9908849927921" y="407" font-size="11" fill="#111">qwen3.5:9b</text></svg>