<svg xmlns="http://www.w3.org/2000/svg" viewBox="0 0 960 480" role="img" aria-label="Warm overall pass rate with 95% bootstrap CI" font-family="system-ui, -apple-system, Segoe UI, sans-serif" font-size="13"><rect width="960" height="480" fill="#fff"/><text x="80" y="24" font-size="16" font-weight="600" fill="#111">Warm overall pass rate with 95% bootstrap CI</text><line x1="80" x2="936" y1="416" y2="416" stroke="#e5e7eb" stroke-width="1"/><text x="72" y="420" text-anchor="end" fill="#374151">0%</text><line x1="80" x2="936" y1="340.8" y2="340.8" stroke="#e5e7eb" stroke-width="1"/><text x="72" y="344.8" text-anchor="end" fill="#374151">20%</text><line x1="80" x2="936" y1="265.6" y2="265.6" stroke="#e5e7eb" stroke-width="1"/><text x="72" y="269.6" text-anchor="end" fill="#374151">40%</text><line x1="80" x2="936" y1="190.4" y2="190.4" stroke="#e5e7eb" stroke-width="1"/><text x="72" y="194.4" text-anchor="end" fill="#374151">60%</text><line x1="80" x2="936" y1="115.19999999999999" y2="115.19999999999999" stroke="#e5e7eb" stroke-width="1"/><text x="72" y="119.19999999999999" text-anchor="end" fill="#374151">80%</text><line x1="80" x2="936" y1="40" y2="40" stroke="#e5e7eb" stroke-width="1"/><text x="72" y="44" text-anchor="end" fill="#374151">100%</text><line x1="80" x2="936" y1="416" y2="416" stroke="#9ca3af"/><line x1="80" x2="80" y1="40" y2="416" stroke="#9ca3af"/><rect x="141.14285714285714" y="416" width="305.7142857142857" height="0" fill="#0072B2" fill-opacity="0.85"/><line x1="294" x2="294" y1="416" y2="416" stroke="#111" stroke-width="1.5"/><line x1="289" x2="299" y1="416" y2="416" stroke="#111" stroke-width="1.5"/><line x1="289" x2="299" y1="416" y2="416" stroke="#111" stroke-width="1.5"/><text x="294" y="432" text-anchor="end" fill="#374151" transform="rotate(-35 294 432)">qwen3.5:4b</text><text x="294" y="410" text-anchor="middle" fill="#111" font-size="11">0%</text><rect x="569.1428571428571" y="416" width="305.7142857142857" height="0" fill="#0072B2" fill-opacity="0.85"/><line x1="722" x2="722" y1="416" y2="416" stroke="#111" stroke-width="1.5"/><line x1="717" x2="727" y1="416" y2="416" stroke="#111" stroke-width="1.5"/><line x1="717" x2="727" y1="416" y2="416" stroke="#111" stroke-width="1.5"/><text x="722" y="432" text-anchor="end" fill="#374151" transform="rotate(-35 722 432)">qwen3.5:9b</text><text x="722" y="410" text-anchor="middle" fill="#111" font-size="11">0%</text><text x="20" y="228" text-anchor="middle" transform="rotate(-90, 20, 228)" fill="#111">overall pass rate</text></svg>