<svg xmlns="http://www.w3.org/2000/svg" viewBox="0 0 960 480" role="img" aria-label="Mean pipeline stage latency (warm, seconds)" font-family="system-ui, -apple-system, Segoe UI, sans-serif" font-size="13"><rect width="960" height="480" fill="#fff"/><text x="80" y="24" font-size="16" font-weight="600" fill="#111">Mean pipeline stage latency (warm, seconds)</text><line x1="80" x2="936" y1="416" y2="416" stroke="#e5e7eb"/><text x="72" y="420" text-anchor="end" fill="#374151">0</text><line x1="80" x2="936" y1="345.2243287605222" y2="345.2243287605222" stroke="#e5e7eb"/><text x="72" y="349.2243287605222" text-anchor="end" fill="#374151">5</text><line x1="80" x2="936" y1="274.4486575210445" y2="274.4486575210445" stroke="#e5e7eb"/><text x="72" y="278.4486575210445" text-anchor="end" fill="#374151">10</text><line x1="80" x2="936" y1="203.67298628156672" y2="203.67298628156672" stroke="#e5e7eb"/><text x="72" y="207.67298628156672" text-anchor="end" fill="#374151">15</text><line x1="80" x2="936" y1="132.89731504208896" y2="132.89731504208896" stroke="#e5e7eb"/><text x="72" y="136.89731504208896" text-anchor="end" fill="#374151">20</text><line x1="80" x2="936" y1="62.121643802611175" y2="62.121643802611175" stroke="#e5e7eb"/><text x="72" y="66.12164380261117" text-anchor="end" fill="#374151">25</text><line x1="80" x2="936" y1="416" y2="416" stroke="#9ca3af"/><line x1="80" x2="80" y1="40" y2="416" stroke="#9ca3af"/><rect x="144.20000000000002" y="415.99292243287607" width="299.59999999999997" height="0.0070775671239289295" fill="#0072B2"/><rect x="144.20000000000002" y="415.92922432876054" width="299.59999999999997" height="0.0636981041155309" fill="#D55E00"/><rect x="144.20000000000002" y="415.92922432876054" width="299.59999999999997" height="0" fill="#009E73"/><rect x="144.20000000000002" y="415.858448657521" width="299.59999999999997" height="0.07077567123951667" fill="#CC79A7"/><rect x="144.20000000000002" y="415.8572690630004" width="299.59999999999997" height="0.0011795945206358738" fill="#E69F00"/><rect x="144.20000000000002" y="163.559695012072" width="299.59999999999997" height="252.29757405092838" fill="#56B4E9"/><rect x="144.20000000000002" y="163.559695012072" width="299.59999999999997" height="0" fill="#F0E442"/><text x="294" y="432" text-anchor="end" fill="#374151" transform="rotate(-35 294 432)">qwen3.5:4b</text><rect x="572.2" y="415.9957534597256" width="299.59999999999997" height="0.004246540274380095" fill="#0072B2"/><rect x="572.2" y="415.9320553556101" width="299.59999999999997" height="0.0636981041155309" fill="#D55E00"/><rect x="572.2" y="415.9320553556101" width="299.59999999999997" height="0" fill="#009E73"/><rect x="572.2" y="415.865526224645" width="299.59999999999997" height="0.06652913096507973" fill="#CC79A7"/><rect x="572.2" y="415.865526224645" width="299.59999999999997" height="0" fill="#E69F00"/><rect x="572.2" y="74.18181818181824" width="299.59999999999997" height="341.68370804282677" fill="#56B4E9"/><rect x="572.2" y="74.18181818181824" width="299.59999999999997" height="0" fill="#F0E442"/><text x="722" y="432" text-anchor="end" fill="#374151" transform="rotate(-35 722 432)">qwen3.5:9b</text><text x="20" y="228" text-anchor="middle" transform="rotate(-90, 20, 228)" fill="#111">seconds per request</text><rect x="260" y="12" width="12" height="12" fill="#0072B2"/><text x="278" y="22" fill="#111">phi_gate</text><rect x="358" y="12" width="12" height="12" fill="#D55E00"/><text x="376" y="22" fill="#111">domain_classification</text><rect x="547" y="12" width="12" height="12" fill="#009E73"/><text x="565" y="22" fill="#111">embedding</text><rect x="652" y="12" width="12" height="12" fill="#CC79A7"/><text x="670" y="22" fill="#111">retrieval</text><rect x="757" y="12" width="12" height="12" fill="#E69F00"/><text x="775" y="22" fill="#111">prompt_build</text><rect x="883" y="12" width="12" height="12" fill="#56B4E9"/><text x="901" y="22" fill="#111">llm_generation</text><rect x="1023" y="12" width="12" height="12" fill="#F0E442"/><text x="1041" y="22" fill="#111">response_validation</text></svg>