<svg xmlns="http://www.w3.org/2000/svg" viewBox="0 0 1200 700" role="img" aria-label="Deployment-ready pass rate (latency ≤ 10s AND quality gate)" font-family="Inter, -apple-system, BlinkMacSystemFont, 'Segoe UI', sans-serif"><title>Deployment-ready pass rate (latency ≤ 10s AND quality gate)</title><desc>Bars sorted desc. Error bars = 95% bootstrap CI (5000 replicates, seed 42). Both gates must clear.</desc>
    <style>
      :root {
        --bg: #FFFFFF;
        --fg: #111827;
        --fg2: #4B5563;
        --subtitle: #6B7280;
        --axis: #6B7280;
        --grid: #F3F4F6;
        --legend-border: #E5E7EB;
        --tier-light: #4C78A8;
        --tier-medium: #E45756;
        --tier-heavy: #54A24B;
        --gate: #B91C1C;
        --zone-fill: #D1FAE5;
        --zone-fill-opacity: 0.5;
        --zone-text: #166534;
      }
      @media (prefers-color-scheme: dark) {
        :root {
          --bg: #0D1117;
          --fg: #F3F4F6;
          --fg2: #9CA3AF;
          --subtitle: #9CA3AF;
          --axis: #9CA3AF;
          --grid: #30363D;
          --legend-border: #374151;
          --gate: #F87171;
          --zone-fill: #14532D;
          --zone-fill-opacity: 0.45;
          --zone-text: #86EFAC;
        }
      }
      .chart-bg { fill: var(--bg); }
      .chart-title { fill: var(--fg); font-size: 22px; font-weight: 700; }
      .chart-subtitle { fill: var(--subtitle); font-size: 14px; font-weight: 400; }
      .chart-axis-title { fill: var(--fg); font-size: 14px; font-weight: 600; }
      .chart-tick { fill: var(--fg2); font-size: 12px; font-weight: 400; }
      .chart-value-label { fill: var(--fg); font-size: 11px; font-weight: 600; }
      .chart-bar-value-label { fill: #111827; font-size: 11px; font-weight: 600; }
      .chart-point-label { fill: var(--fg); font-size: 12px; font-weight: 500; }
      .chart-legend-label { fill: var(--fg2); font-size: 13px; font-weight: 500; }
      .chart-note { fill: var(--subtitle); font-size: 11px; font-weight: 400; }
      .chart-value-pill { fill: #FFFFFF; }
      .chart-legend-box { fill: #FFFFFF; stroke: #E5E7EB; stroke-width: 1; }
      .chart-acceptable-zone { fill: #F0FDF4; fill-opacity: 0.3; }
      .chart-acceptable-label { fill: #166534; font-size: 11px; font-weight: 600; }
      .chart-zero-baseline { stroke: #D1D5DB; stroke-width: 1.5; }
      .chart-gridline { stroke: var(--grid); stroke-width: 1; }
      .chart-axis { stroke: var(--axis); stroke-width: 1; }
      .chart-gate { stroke: var(--gate); stroke-width: 1.5; stroke-dasharray: 6,4; }
      .chart-gate-label { fill: var(--gate); font-size: 11px; font-weight: 600; }
      .chart-zone { fill: var(--zone-fill); fill-opacity: var(--zone-fill-opacity); }
      .chart-zone-label { fill: var(--zone-text); font-size: 12px; font-weight: 600; }
      .chart-bar-light { fill: var(--tier-light); }
      .chart-bar-medium { fill: var(--tier-medium); }
      .chart-bar-heavy { fill: var(--tier-heavy); }
      .chart-errbar { stroke: var(--fg); stroke-width: 1.5; }
      .chart-scatter-stroke { stroke: var(--bg); stroke-width: 1.5; }
      .chart-line { fill: none; }
    </style><rect class="chart-bg" width="1200" height="700"/><text class="chart-title" x="100" y="46">Deployment-ready pass rate (latency ≤ 10s AND quality gate)</text><text class="chart-subtitle" x="100" y="70">Bars sorted desc. Error bars = 95% bootstrap CI (5000 replicates, seed 42). Both gates must clear.</text><line class="chart-gridline" x1="100" x2="1110" y1="600" y2="600"/><text class="chart-tick" x="90" y="604" text-anchor="end">0%</text><line class="chart-gridline" x1="100" x2="1110" y1="498.4" y2="498.4"/><text class="chart-tick" x="90" y="502.4" text-anchor="end">20%</text><line class="chart-gridline" x1="100" x2="1110" y1="396.79999999999995" y2="396.79999999999995"/><text class="chart-tick" x="90" y="400.79999999999995" text-anchor="end">40%</text><line class="chart-gridline" x1="100" x2="1110" y1="295.2" y2="295.2"/><text class="chart-tick" x="90" y="299.2" text-anchor="end">60%</text><line class="chart-gridline" x1="100" x2="1110" y1="193.59999999999997" y2="193.59999999999997"/><text class="chart-tick" x="90" y="197.59999999999997" text-anchor="end">80%</text><line class="chart-gridline" x1="100" x2="1110" y1="92" y2="92"/><text class="chart-tick" x="90" y="96" text-anchor="end">100%</text><line class="chart-axis" x1="100" x2="1110" y1="600" y2="600"/><line class="chart-axis" x1="100" x2="100" y1="92" y2="600"/><line class="chart-gate" x1="100" x2="1110" y1="295.2" y2="295.2"/><text class="chart-gate-label" x="1100" y="289.2" text-anchor="end">60% target</text><rect class="chart-bar-medium" data-label="gemma4:26b" data-value="0.4714285714285714" x="132.11111111111111" y="360.51428571428573" width="48" height="239.48571428571427" fill-opacity="0.85"/><line class="chart-errbar" x1="156.11111111111111" x2="156.11111111111111" y1="326.64761904761906" y2="394.3809523809524"/><line class="chart-errbar" x1="151.11111111111111" x2="161.11111111111111" y1="326.64761904761906" y2="326.64761904761906"/><line class="chart-errbar" x1="151.11111111111111" x2="161.11111111111111" y1="394.3809523809524" y2="394.3809523809524"/><text class="chart-tick" x="156.11111111111111" y="620" text-anchor="end" transform="rotate(-35 156.11111111111111 620)">gemma4:26b</text><rect class="chart-value-pill" x="141.91111111111113" y="309.14761904761906" width="28.4" height="15" rx="3"/><text class="chart-bar-value-label" x="156.11111111111111" y="320.64761904761906" text-anchor="middle">47%</text><rect class="chart-bar-light" data-label="gemma4:e4b" data-value="0.34285714285714286" x="244.33333333333337" y="425.8285714285714" width="48" height="174.17142857142858" fill-opacity="0.85"/><line class="chart-errbar" x1="268.33333333333337" x2="268.33333333333337" y1="391.96190476190475" y2="457.27619047619044"/><line class="chart-errbar" x1="263.33333333333337" x2="273.33333333333337" y1="391.96190476190475" y2="391.96190476190475"/><line class="chart-errbar" x1="263.33333333333337" x2="273.33333333333337" y1="457.27619047619044" y2="457.27619047619044"/><text class="chart-tick" x="268.33333333333337" y="620" text-anchor="end" transform="rotate(-35 268.33333333333337 620)">gemma4:e4b</text><rect class="chart-value-pill" x="254.13333333333338" y="374.46190476190475" width="28.4" height="15" rx="3"/><text class="chart-bar-value-label" x="268.33333333333337" y="385.96190476190475" text-anchor="middle">34%</text><rect class="chart-bar-light" data-label="gemma4:e2b" data-value="0.3333333333333333" x="356.55555555555554" y="430.6666666666667" width="48" height="169.33333333333331" fill-opacity="0.85"/><line class="chart-errbar" x1="380.55555555555554" x2="380.55555555555554" y1="396.79999999999995" y2="464.5333333333333"/><line class="chart-errbar" x1="375.55555555555554" x2="385.55555555555554" y1="396.79999999999995" y2="396.79999999999995"/><line class="chart-errbar" x1="375.55555555555554" x2="385.55555555555554" y1="464.5333333333333" y2="464.5333333333333"/><text class="chart-tick" x="380.55555555555554" y="620" text-anchor="end" transform="rotate(-35 380.55555555555554 620)">gemma4:e2b</text><rect class="chart-value-pill" x="366.35555555555555" y="379.29999999999995" width="28.4" height="15" rx="3"/><text class="chart-bar-value-label" x="380.55555555555554" y="390.79999999999995" text-anchor="middle">33%</text><rect class="chart-bar-light" data-label="qwen3.5:4b" data-value="0.2857142857142857" x="468.7777777777778" y="454.8571428571429" width="48" height="145.1428571428571" fill-opacity="0.85"/><line class="chart-errbar" x1="492.7777777777778" x2="492.7777777777778" y1="423.4095238095238" y2="486.3047619047619"/><line class="chart-errbar" x1="487.7777777777778" x2="497.7777777777778" y1="423.4095238095238" y2="423.4095238095238"/><line class="chart-errbar" x1="487.7777777777778" x2="497.7777777777778" y1="486.3047619047619" y2="486.3047619047619"/><text class="chart-tick" x="492.7777777777778" y="620" text-anchor="end" transform="rotate(-35 492.7777777777778 620)">qwen3.5:4b</text><rect class="chart-value-pill" x="478.57777777777784" y="405.9095238095238" width="28.4" height="15" rx="3"/><text class="chart-bar-value-label" x="492.7777777777778" y="417.4095238095238" text-anchor="middle">29%</text><rect class="chart-bar-light" data-label="qwen3.5:9b" data-value="0.2619047619047619" x="581" y="466.95238095238096" width="48" height="133.04761904761904" fill-opacity="0.85"/><line class="chart-errbar" x1="605" x2="605" y1="435.5047619047619" y2="495.9809523809524"/><line class="chart-errbar" x1="600" x2="610" y1="435.5047619047619" y2="435.5047619047619"/><line class="chart-errbar" x1="600" x2="610" y1="495.9809523809524" y2="495.9809523809524"/><text class="chart-tick" x="605" y="620" text-anchor="end" transform="rotate(-35 605 620)">qwen3.5:9b</text><rect class="chart-value-pill" x="590.8" y="418.0047619047619" width="28.4" height="15" rx="3"/><text class="chart-bar-value-label" x="605" y="429.5047619047619" text-anchor="middle">26%</text><rect class="chart-bar-medium" data-label="qwen3.6:35b-a3b" data-value="0.2523809523809524" x="693.2222222222223" y="471.79047619047617" width="48" height="128.20952380952383" fill-opacity="0.85"/><line class="chart-errbar" x1="717.2222222222223" x2="717.2222222222223" y1="440.34285714285716" y2="503.23809523809524"/><line class="chart-errbar" x1="712.2222222222223" x2="722.2222222222223" y1="440.34285714285716" y2="440.34285714285716"/><line class="chart-errbar" x1="712.2222222222223" x2="722.2222222222223" y1="503.23809523809524" y2="503.23809523809524"/><text class="chart-tick" x="717.2222222222223" y="620" text-anchor="end" transform="rotate(-35 717.2222222222223 620)">qwen3.6:35b-a3b</text><rect class="chart-value-pill" x="703.0222222222222" y="422.84285714285716" width="28.4" height="15" rx="3"/><text class="chart-bar-value-label" x="717.2222222222223" y="434.34285714285716" text-anchor="middle">25%</text><rect class="chart-bar-medium" data-label="gemma4:31b" data-value="0.05714285714285714" x="805.4444444444445" y="570.9714285714285" width="48" height="29.028571428571468" fill-opacity="0.85"/><line class="chart-errbar" x1="829.4444444444445" x2="829.4444444444445" y1="554.0380952380953" y2="585.4857142857143"/><line class="chart-errbar" x1="824.4444444444445" x2="834.4444444444445" y1="554.0380952380953" y2="554.0380952380953"/><line class="chart-errbar" x1="824.4444444444445" x2="834.4444444444445" y1="585.4857142857143" y2="585.4857142857143"/><text class="chart-tick" x="829.4444444444445" y="620" text-anchor="end" transform="rotate(-35 829.4444444444445 620)">gemma4:31b</text><rect class="chart-value-pill" x="818.6444444444445" y="536.5380952380953" width="21.6" height="15" rx="3"/><text class="chart-bar-value-label" x="829.4444444444445" y="548.0380952380953" text-anchor="middle">6%</text><rect class="chart-bar-heavy" data-label="qwen3.5:122b-a10b" data-value="0.02857142857142857" x="917.6666666666667" y="585.4857142857143" width="48" height="14.514285714285734" fill-opacity="0.85"/><line class="chart-errbar" x1="941.6666666666667" x2="941.6666666666667" y1="573.3904761904762" y2="595.1619047619048"/><line class="chart-errbar" x1="936.6666666666667" x2="946.6666666666667" y1="573.3904761904762" y2="573.3904761904762"/><line class="chart-errbar" x1="936.6666666666667" x2="946.6666666666667" y1="595.1619047619048" y2="595.1619047619048"/><text class="chart-tick" x="941.6666666666667" y="620" text-anchor="end" transform="rotate(-35 941.6666666666667 620)">qwen3.5:122b-a10b</text><rect class="chart-value-pill" x="930.8666666666668" y="555.8904761904762" width="21.6" height="15" rx="3"/><text class="chart-bar-value-label" x="941.6666666666667" y="567.3904761904762" text-anchor="middle">3%</text><rect class="chart-bar-medium" data-label="qwen3.5:27b" data-value="0.009523809523809525" x="1029.888888888889" y="595.1619047619048" width="48" height="4.838095238095207" fill-opacity="0.85"/><line class="chart-errbar" x1="1053.888888888889" x2="1053.888888888889" y1="587.9047619047619" y2="600"/><line class="chart-errbar" x1="1048.888888888889" x2="1058.888888888889" y1="587.9047619047619" y2="587.9047619047619"/><line class="chart-errbar" x1="1048.888888888889" x2="1058.888888888889" y1="600" y2="600"/><text class="chart-tick" x="1053.888888888889" y="620" text-anchor="end" transform="rotate(-35 1053.888888888889 620)">qwen3.5:27b</text><rect class="chart-value-pill" x="1043.088888888889" y="570.4047619047619" width="21.6" height="15" rx="3"/><text class="chart-bar-value-label" x="1053.888888888889" y="581.9047619047619" text-anchor="middle">1%</text><text class="chart-axis-title" x="24" y="346" text-anchor="middle" transform="rotate(-90 24 346)">combined pass rate</text><rect class="chart-bar-light" x="810" y="67" width="14" height="14"/><text class="chart-legend-label" x="830" y="78">light tier</text><rect class="chart-bar-medium" x="926" y="67" width="14" height="14"/><text class="chart-legend-label" x="946" y="78">medium tier</text><rect class="chart-bar-heavy" x="1049.2" y="67" width="14" height="14"/><text class="chart-legend-label" x="1069.2" y="78">heavy tier</text></svg>