<svg xmlns="http://www.w3.org/2000/svg" viewBox="0 0 1810 360" role="img" aria-label="Pass rate by model × category" font-family="system-ui, -apple-system, Segoe UI, sans-serif" font-size="13"><rect width="1810" height="360" fill="#fff"/><text x="180" y="24" font-size="16" font-weight="600" fill="#111">Pass rate by model × category</text><text x="232.33333333333334" y="40" text-anchor="middle" fill="#374151">factual</text><text x="337" y="40" text-anchor="middle" fill="#374151">differential</text><text x="441.6666666666667" y="40" text-anchor="middle" fill="#374151">protocol</text><text x="546.3333333333334" y="40" text-anchor="middle" fill="#374151">refusal</text><text x="651" y="40" text-anchor="middle" fill="#374151">adversarial</text><text x="755.6666666666667" y="40" text-anchor="middle" fill="#374151">long_context</text><text x="860.3333333333334" y="40" text-anchor="middle" fill="#374151">calibration</text><text x="965" y="40" text-anchor="middle" fill="#374151">bias_invariance</text><text x="1069.6666666666667" y="40" text-anchor="middle" fill="#374151">noise_robustness</text><text x="1174.3333333333335" y="40" text-anchor="middle" fill="#374151">citation_integrity</text><text x="1279" y="40" text-anchor="middle" fill="#374151">dose_critical</text><text x="1383.6666666666667" y="40" text-anchor="middle" fill="#374151">cross_institutional</text><text x="1488.3333333333335" y="40" text-anchor="middle" fill="#374151">reasoning_chain</text><text x="1593" y="40" text-anchor="middle" fill="#374151">it_support</text><text x="1697.6666666666667" y="40" text-anchor="middle" fill="#374151">multi_turn</text><text x="170" y="112" text-anchor="end" fill="#374151">qwen3.5:4b</text><text x="170" y="232" text-anchor="end" fill="#374151">qwen3.5:9b</text><rect x="180" y="48" width="102.66666666666667" height="118" fill="rgb(247, 251, 255)" stroke="#ffffff"/><text x="232.33333333333334" y="112" text-anchor="middle" fill="#111" font-size="12">0%</text><rect x="284.6666666666667" y="48" width="102.66666666666667" height="118" fill="rgb(247, 251, 255)" stroke="#ffffff"/><text x="337" y="112" text-anchor="middle" fill="#111" font-size="12">—</text><rect x="389.33333333333337" y="48" width="102.66666666666667" height="118" fill="rgb(247, 251, 255)" stroke="#ffffff"/><text x="441.6666666666667" y="112" text-anchor="middle" fill="#111" font-size="12">—</text><rect x="494" y="48" width="102.66666666666667" height="118" fill="rgb(247, 251, 255)" stroke="#ffffff"/><text x="546.3333333333334" y="112" text-anchor="middle" fill="#111" font-size="12">—</text><rect x="598.6666666666667" y="48" width="102.66666666666667" height="118" fill="rgb(247, 251, 255)" stroke="#ffffff"/><text x="651.0000000000001" y="112" text-anchor="middle" fill="#111" font-size="12">—</text><rect x="703.3333333333334" y="48" width="102.66666666666667" height="118" fill="rgb(247, 251, 255)" stroke="#ffffff"/><text x="755.6666666666667" y="112" text-anchor="middle" fill="#111" font-size="12">—</text><rect x="808" y="48" width="102.66666666666667" height="118" fill="rgb(247, 251, 255)" stroke="#ffffff"/><text x="860.3333333333334" y="112" text-anchor="middle" fill="#111" font-size="12">—</text><rect x="912.6666666666667" y="48" width="102.66666666666667" height="118" fill="rgb(247, 251, 255)" stroke="#ffffff"/><text x="965.0000000000001" y="112" text-anchor="middle" fill="#111" font-size="12">—</text><rect x="1017.3333333333334" y="48" width="102.66666666666667" height="118" fill="rgb(247, 251, 255)" stroke="#ffffff"/><text x="1069.6666666666667" y="112" text-anchor="middle" fill="#111" font-size="12">—</text><rect x="1122" y="48" width="102.66666666666667" height="118" fill="rgb(247, 251, 255)" stroke="#ffffff"/><text x="1174.3333333333333" y="112" text-anchor="middle" fill="#111" font-size="12">—</text><rect x="1226.6666666666667" y="48" width="102.66666666666667" height="118" fill="rgb(247, 251, 255)" stroke="#ffffff"/><text x="1279" y="112" text-anchor="middle" fill="#111" font-size="12">—</text><rect x="1331.3333333333335" y="48" width="102.66666666666667" height="118" fill="rgb(247, 251, 255)" stroke="#ffffff"/><text x="1383.6666666666667" y="112" text-anchor="middle" fill="#111" font-size="12">—</text><rect x="1436" y="48" width="102.66666666666667" height="118" fill="rgb(247, 251, 255)" stroke="#ffffff"/><text x="1488.3333333333333" y="112" text-anchor="middle" fill="#111" font-size="12">—</text><rect x="1540.6666666666667" y="48" width="102.66666666666667" height="118" fill="rgb(247, 251, 255)" stroke="#ffffff"/><text x="1593" y="112" text-anchor="middle" fill="#111" font-size="12">—</text><rect x="1645.3333333333335" y="48" width="102.66666666666667" height="118" fill="rgb(247, 251, 255)" stroke="#ffffff"/><text x="1697.6666666666667" y="112" text-anchor="middle" fill="#111" font-size="12">—</text><rect x="180" y="168" width="102.66666666666667" height="118" fill="rgb(247, 251, 255)" stroke="#ffffff"/><text x="232.33333333333334" y="232" text-anchor="middle" fill="#111" font-size="12">0%</text><rect x="284.6666666666667" y="168" width="102.66666666666667" height="118" fill="rgb(247, 251, 255)" stroke="#ffffff"/><text x="337" y="232" text-anchor="middle" fill="#111" font-size="12">—</text><rect x="389.33333333333337" y="168" width="102.66666666666667" height="118" fill="rgb(247, 251, 255)" stroke="#ffffff"/><text x="441.6666666666667" y="232" text-anchor="middle" fill="#111" font-size="12">—</text><rect x="494" y="168" width="102.66666666666667" height="118" fill="rgb(247, 251, 255)" stroke="#ffffff"/><text x="546.3333333333334" y="232" text-anchor="middle" fill="#111" font-size="12">—</text><rect x="598.6666666666667" y="168" width="102.66666666666667" height="118" fill="rgb(247, 251, 255)" stroke="#ffffff"/><text x="651.0000000000001" y="232" text-anchor="middle" fill="#111" font-size="12">—</text><rect x="703.3333333333334" y="168" width="102.66666666666667" height="118" fill="rgb(247, 251, 255)" stroke="#ffffff"/><text x="755.6666666666667" y="232" text-anchor="middle" fill="#111" font-size="12">—</text><rect x="808" y="168" width="102.66666666666667" height="118" fill="rgb(247, 251, 255)" stroke="#ffffff"/><text x="860.3333333333334" y="232" text-anchor="middle" fill="#111" font-size="12">—</text><rect x="912.6666666666667" y="168" width="102.66666666666667" height="118" fill="rgb(247, 251, 255)" stroke="#ffffff"/><text x="965.0000000000001" y="232" text-anchor="middle" fill="#111" font-size="12">—</text><rect x="1017.3333333333334" y="168" width="102.66666666666667" height="118" fill="rgb(247, 251, 255)" stroke="#ffffff"/><text x="1069.6666666666667" y="232" text-anchor="middle" fill="#111" font-size="12">—</text><rect x="1122" y="168" width="102.66666666666667" height="118" fill="rgb(247, 251, 255)" stroke="#ffffff"/><text x="1174.3333333333333" y="232" text-anchor="middle" fill="#111" font-size="12">—</text><rect x="1226.6666666666667" y="168" width="102.66666666666667" height="118" fill="rgb(247, 251, 255)" stroke="#ffffff"/><text x="1279" y="232" text-anchor="middle" fill="#111" font-size="12">—</text><rect x="1331.3333333333335" y="168" width="102.66666666666667" height="118" fill="rgb(247, 251, 255)" stroke="#ffffff"/><text x="1383.6666666666667" y="232" text-anchor="middle" fill="#111" font-size="12">—</text><rect x="1436" y="168" width="102.66666666666667" height="118" fill="rgb(247, 251, 255)" stroke="#ffffff"/><text x="1488.3333333333333" y="232" text-anchor="middle" fill="#111" font-size="12">—</text><rect x="1540.6666666666667" y="168" width="102.66666666666667" height="118" fill="rgb(247, 251, 255)" stroke="#ffffff"/><text x="1593" y="232" text-anchor="middle" fill="#111" font-size="12">—</text><rect x="1645.3333333333335" y="168" width="102.66666666666667" height="118" fill="rgb(247, 251, 255)" stroke="#ffffff"/><text x="1697.6666666666667" y="232" text-anchor="middle" fill="#111" font-size="12">—</text><text x="965" y="344" text-anchor="middle" fill="#111">Category</text><text x="24" y="168" text-anchor="middle" transform="rotate(-90, 24, 168)" fill="#111">Model</text><rect x="1738" y="48" width="12" height="13" fill="rgb(8, 48, 107)"/><rect x="1738" y="60" width="12" height="13" fill="rgb(17, 71, 133)"/><rect x="1738" y="72" width="12" height="13" fill="rgb(26, 94, 159)"/><rect x="1738" y="84" width="12" height="13" fill="rgb(35, 115, 182)"/><rect x="1738" y="96" width="12" height="13" fill="rgb(51, 128, 189)"/><rect x="1738" y="108" width="12" height="13" fill="rgb(66, 141, 196)"/><rect x="1738" y="120" width="12" height="13" fill="rgb(82, 153, 203)"/><rect x="1738" y="132" width="12" height="13" fill="rgb(98, 166, 210)"/><rect x="1738" y="144" width="12" height="13" fill="rgb(113, 177, 216)"/><rect x="1738" y="156" width="12" height="13" fill="rgb(129, 185, 220)"/><rect x="1738" y="168" width="12" height="13" fill="rgb(145, 193, 225)"/><rect x="1738" y="180" width="12" height="13" fill="rgb(161, 201, 229)"/><rect x="1738" y="192" width="12" height="13" fill="rgb(177, 209, 233)"/><rect x="1738" y="204" width="12" height="13" fill="rgb(193, 217, 238)"/><rect x="1738" y="216" width="12" height="13" fill="rgb(204, 223, 241)"/><rect x="1738" y="228" width="12" height="13" fill="rgb(213, 229, 244)"/><rect x="1738" y="240" width="12" height="13" fill="rgb(221, 234, 247)"/><rect x="1738" y="252" width="12" height="13" fill="rgb(230, 240, 249)"/><rect x="1738" y="264" width="12" height="13" fill="rgb(238, 245, 252)"/><rect x="1738" y="276" width="12" height="13" fill="rgb(247, 251, 255)"/><text x="1752" y="58" fill="#111" font-size="11">100%</text><text x="1752" y="288" fill="#111" font-size="11">0%</text></svg>