<svg xmlns="http://www.w3.org/2000/svg" viewBox="0 0 960 480" role="img" aria-label="End-to-end latency ECDF (warm)" font-family="system-ui, -apple-system, Segoe UI, sans-serif" font-size="13"><rect width="960" height="480" fill="#fff"/><text x="80" y="24" font-size="16" font-weight="600" fill="#111">End-to-end latency ECDF (warm)</text><line x1="80" x2="936" y1="416" y2="416" stroke="#e5e7eb" stroke-width="1"/><text x="72" y="420" text-anchor="end" fill="#374151">0%</text><line x1="80" x2="936" y1="322" y2="322" stroke="#e5e7eb" stroke-width="1"/><text x="72" y="326" text-anchor="end" fill="#374151">25%</text><line x1="80" x2="936" y1="228" y2="228" stroke="#e5e7eb" stroke-width="1"/><text x="72" y="232" text-anchor="end" fill="#374151">50%</text><line x1="80" x2="936" y1="134" y2="134" stroke="#e5e7eb" stroke-width="1"/><text x="72" y="138" text-anchor="end" fill="#374151">75%</text><line x1="80" x2="936" y1="40" y2="40" stroke="#e5e7eb" stroke-width="1"/><text x="72" y="44" text-anchor="end" fill="#374151">100%</text><text x="2081.2595544216647" y="434" text-anchor="middle" fill="#374151">0</text><text x="5210.196901424789" y="434" text-anchor="middle" fill="#374151">5</text><text x="8339.134248427914" y="434" text-anchor="middle" fill="#374151">10</text><text x="11468.071595431036" y="434" text-anchor="middle" fill="#374151">15</text><text x="14597.008942434164" y="434" text-anchor="middle" fill="#374151">20</text><text x="17725.94628943729" y="434" text-anchor="middle" fill="#374151">25</text><text x="20854.88363644041" y="434" text-anchor="middle" fill="#374151">30</text><line x1="80" x2="936" y1="416" y2="416" stroke="#9ca3af" stroke-width="1"/><line x1="80" x2="80" y1="40" y2="416" stroke="#9ca3af" stroke-width="1"/><text x="508" y="468" text-anchor="middle" fill="#111" font-size="13">total time (s)</text><text x="20" y="228" text-anchor="middle" transform="rotate(-90, 20, 228)" fill="#111" font-size="13">cumulative %</text><line x1="330.1574443027081" x2="330.1574443027081" y1="40" y2="416" stroke="#D55E00" stroke-width="1.5" stroke-dasharray="6,4"/><text x="334.1574443027081" y="54" fill="#D55E00" font-size="11">10s gate</text><path d="M 80.97561403278056 416 L 80.97561403278056 384.6666666666667 L 81.02564552164111 353.3333333333333 L 537.5129498852227 322 L 559.0765215841161 290.6666666666667 L 594.0235165532046 259.3333333333333 L 607.2568453568178 228 L 615.1618205967834 196.66666666666666 L 630.8717080989934 165.33333333333334 L 649.5084376995452 134 L 651.4846815095366 102.66666666666663 L 652.6604214977593 71.33333333333337 L 663.0919869251823 40" stroke="#0072B2" stroke-width="2" fill="none"/><path d="M 81.07567701050165 416 L 81.07567701050165 378.4 L 81.27580296594381 340.8 L 745.0435656787495 303.2 L 802.2295574463484 265.6 L 830.1471282305306 228 L 846.4824093434975 190.4 L 847.2578974208359 152.8 L 853.6869437394155 115.19999999999999 L 865.9946899991088 77.59999999999997 L 895.2380952380953 40" stroke="#D55E00" stroke-width="2" fill="none"/><rect x="260" y="12" width="12" height="12" fill="#0072B2"/><text x="278" y="22" fill="#111">qwen3.5:4b</text><rect x="372" y="12" width="12" height="12" fill="#D55E00"/><text x="390" y="22" fill="#111">qwen3.5:9b</text></svg>